<svg width="261" height="283" viewBox="0 0 261 283" fill="none" xmlns="http://www.w3.org/2000/svg">
<path d="M0.502638 31.2667C0.671902 60.3333 0.841166 61.9333 3.0416 56.7333C6.08835 50.0667 17.0905 39.9333 23.5225 37.8C26.7386 36.7333 37.4022 36.3333 54.4979 36.6L80.7338 37L81.2416 149.4L81.5801 261.8L72.6091 269.4C67.7005 273.533 62.284 278.333 60.5914 279.933L57.3754 283H95.629H134.052V159.667V36.3333H143.361H152.671V159.667V283H206.836H261L260.831 257.267V231.667L257.615 238.333C255.753 241.933 252.029 247.267 248.982 249.933L243.904 255H218.515H193.294V145.533V36.0667L215.976 36.6L238.826 37L245.089 41.6667C248.474 44.2 253.045 49.2667 255.245 53L259.138 59.5333L259.646 47.6667C259.984 41 259.984 27.6667 259.646 17.9333L259.138 0.333319H129.651H0.333374L0.502638 31.2667Z" fill="#1E73BE"/>
</svg>
