<svg width="187" height="180" viewBox="0 0 187 180" fill="none" xmlns="http://www.w3.org/2000/svg">
<path d="M0.454586 20.1043C0.575798 38.5668 0.69701 39.5831 2.27277 36.2802C4.45459 32.0457 12.3334 25.6092 16.9394 24.2541C19.2425 23.5766 26.8788 23.3225 39.1212 23.4919L57.9091 23.746L58.2728 95.1401L58.5152 166.534L52.0909 171.362C48.5758 173.987 44.697 177.036 43.4849 178.052L41.1819 180H68.5758H96.0909V101.661V23.3225H102.758H109.424V101.661V180H148.212H187L186.879 163.655V147.394L184.576 151.629C183.242 153.915 180.576 157.303 178.394 158.997L174.758 162.215H156.576H138.515V92.6841V23.1531L154.758 23.4919L171.121 23.746L175.606 26.7101C178.03 28.3193 181.303 31.5375 182.879 33.9088L185.667 38.0587L186.03 30.5212C186.273 26.2867 186.273 17.8176 186.03 11.6352L185.667 0.456085H92.9394H0.333374L0.454586 20.1043Z" fill="#1E73BE"/>
</svg>
