<?xml version="1.0" standalone="no"?>
<!DOCTYPE svg PUBLIC "-//W3C//DTD SVG 20010904//EN"
 "http://www.w3.org/TR/2001/REC-SVG-20010904/DTD/svg10.dtd">
<svg version="1.0" xmlns="http://www.w3.org/2000/svg"
 width="1366.000000pt" height="768.000000pt" viewBox="0 0 1366.000000 768.000000"
 preserveAspectRatio="xMidYMid meet">

<g transform="translate(0.000000,768.000000) scale(0.100000,-0.100000)"
fill="#000000" stroke="none">
<path d="M5801 6448 c1 -218 2 -230 15 -191 18 50 83 126 121 142 19 8 82 11
183 9 l155 -3 3 -843 2 -843 -53 -57 c-29 -31 -61 -67 -71 -79 l-19 -23 226 0
227 0 0 925 0 925 55 0 55 0 0 -925 0 -925 320 0 320 0 -1 193 0 192 -19 -50
c-11 -27 -33 -67 -51 -87 l-30 -38 -150 0 -149 0 0 821 0 821 134 -4 135 -3
37 -35 c20 -19 47 -57 60 -85 l23 -49 3 89 c2 50 2 150 0 223 l-3 132 -765 0
-764 0 1 -232z"/>
</g>
</svg>
